<svg width="235" height="20" viewBox="0 0 470 39" fill="none" xmlns="http://www.w3.org/2000/svg">
  <g filter="url(#filter0_d_143_27517)">
    <path d="M41.212 6.58783L41.81 5.86487L43.7168 3.55955C43.9774 3.24446 44.12 2.84835 44.12 2.43945C44.12 1.23957 42.9442 0.39252 41.8061 0.772467L33.42 3.57203L25.5 6.98194L19 10.1125L10.3504 13.1321C8.87936 13.6456 8.53455 15.5696 9.73569 16.5621L11.8228 18.2866C11.9865 18.4219 12.1709 18.5303 12.3688 18.6076L25.5 23.7386L35.73 28.4278L42.181 30.4056C43.1449 30.7011 44.12 29.9802 44.12 28.9719C44.12 28.4916 43.8898 28.0403 43.501 27.7582L42.6356 27.1305C42.117 26.7542 41.81 26.1523 41.81 25.5115V24.5868C41.81 24.0448 42.03 23.526 42.4196 23.1492L43.5432 22.0624C43.9134 21.7043 44.4074 21.5029 44.9225 21.5L233.38 20.4458L311.92 21.5629L371.98 21.0044H465.353C466.162 21.0044 466.892 20.5166 467.201 19.7687L468.676 16.2032C468.883 15.7019 468.878 15.1379 468.661 14.6405L467.219 11.3275C466.898 10.591 466.168 10.1178 465.365 10.1259L411.25 10.6711H311.92L233.38 9.83326L44.53 10.6109C44.2595 10.612 43.9915 10.5583 43.7424 10.4528L41.9738 9.70443C40.7405 9.18257 40.3585 7.61973 41.212 6.58783Z" fill="#835211" shape-rendering="crispEdges" transform="rotate(180 235 19)"/>
    <path d="M41.212 6.58783L41.81 5.86487L43.7168 3.55955C43.9774 3.24446 44.12 2.84835 44.12 2.43945C44.12 1.23957 42.9442 0.39252 41.8061 0.772467L33.42 3.57203L25.5 6.98194L19 10.1125L10.3504 13.1321C8.87936 13.6456 8.53455 15.5696 9.73569 16.5621L11.8228 18.2866C11.9865 18.4219 12.1709 18.5303 12.3688 18.6076L25.5 23.7386L35.73 28.4278L42.181 30.4056C43.1449 30.7011 44.12 29.9802 44.12 28.9719C44.12 28.4916 43.8898 28.0403 43.501 27.7582L42.6356 27.1305C42.117 26.7542 41.81 26.1523 41.81 25.5115V24.5868C41.81 24.0448 42.03 23.526 42.4196 23.1492L43.5432 22.0624C43.9134 21.7043 44.4074 21.5029 44.9225 21.5L233.38 20.4458L311.92 21.5629L371.98 21.0044H465.353C466.162 21.0044 466.892 20.5166 467.201 19.7687L468.676 16.2032C468.883 15.7019 468.878 15.1379 468.661 14.6405L467.219 11.3275C466.898 10.591 466.168 10.1178 465.365 10.1259L411.25 10.6711H311.92L233.38 9.83326L44.53 10.6109C44.2595 10.612 43.9915 10.5583 43.7424 10.4528L41.9738 9.70443C40.7405 9.18257 40.3585 7.61973 41.212 6.58783Z" stroke="#835211" stroke-opacity="0.7" stroke-linecap="round" shape-rendering="crispEdges" transform="rotate(180 235 19)"/>
  </g>
  <defs>
    <filter id="filter0_d_143_27517" x="0.508789" y="0.180176" width="468.819" height="38.7925" filterUnits="userSpaceOnUse" color-interpolation-filters="sRGB">
    <feFlood flood-opacity="0" result="BackgroundImageFix"/>
    <feColorMatrix in="SourceAlpha" type="matrix" values="0 0 0 0 0 0 0 0 0 0 0 0 0 0 0 0 0 0 127 0" result="hardAlpha"/>
    <feOffset dx="-4" dy="4"/>
    <feGaussianBlur stdDeviation="2"/>
    <feComposite in2="hardAlpha" operator="out"/>
    <feColorMatrix type="matrix" values="0 0 0 0 0.929412 0 0 0 0 0.721569 0 0 0 0 0.447059 0 0 0 0.25 0"/>
    <feBlend mode="normal" in2="BackgroundImageFix" result="effect1_dropShadow_143_27517"/>
    <feBlend mode="normal" in="SourceGraphic" in2="effect1_dropShadow_143_27517" result="shape"/>
    </filter>
  </defs>
</svg>
